<svg width="222" height="40" viewBox="0 0 222 40" fill="none" xmlns="http://www.w3.org/2000/svg">
<g id="einvoice">
<g id="text">
<path id="Vector" d="M200.461 28.5823C201.419 31.9733 204.016 33.6688 208.253 33.6688C210.979 33.6688 213.042 32.767 214.442 30.9632L220.19 34.21C217.463 38.07 213.448 40 208.142 40C203.574 40 199.908 38.6472 197.145 35.9416C194.382 33.2359 193 29.8268 193 25.7143C193 21.6378 194.363 18.2468 197.09 15.5411C199.816 12.7994 203.316 11.4286 207.59 11.4286C211.642 11.4286 214.977 12.7994 217.592 15.5411C220.245 18.2828 221.571 21.6739 221.571 25.7143C221.571 26.6162 221.479 27.5721 221.295 28.5823H200.461ZM200.35 23.171H214.442C214.037 21.3312 213.19 19.9603 211.9 19.0584C210.648 18.1566 209.211 17.7056 207.59 17.7056C205.674 17.7056 204.09 18.1926 202.837 19.1667C201.584 20.1046 200.755 21.4394 200.35 23.171Z" fill="black"/>
<path id="Vector_2" d="M177.624 40C173.451 40 169.961 38.6292 167.155 35.8874C164.385 33.1457 163 29.7547 163 25.7143C163 21.6739 164.385 18.2828 167.155 15.5411C169.961 12.7994 173.451 11.4286 177.624 11.4286C180.32 11.4286 182.776 12.0599 184.991 13.3225C187.207 14.5851 188.887 16.2807 190.032 18.4091L183.883 21.9264C183.329 20.8081 182.48 19.9242 181.335 19.2749C180.227 18.6255 178.972 18.3009 177.569 18.3009C175.427 18.3009 173.654 19.0043 172.251 20.4113C170.847 21.7821 170.146 23.5498 170.146 25.7143C170.146 27.8427 170.847 29.6104 172.251 31.0173C173.654 32.3882 175.427 33.0736 177.569 33.0736C179.009 33.0736 180.283 32.767 181.391 32.1537C182.535 31.5043 183.385 30.6205 183.939 29.5022L190.143 32.9654C188.924 35.0938 187.207 36.8074 184.991 38.1061C182.776 39.3687 180.32 40 177.624 40Z" fill="black"/>
<path id="Vector_3" d="M141.698 35.8874C138.926 38.6292 135.541 40 131.544 40C127.548 40 124.163 38.6292 121.39 35.8874C118.654 33.1097 117.286 29.7186 117.286 25.7143C117.286 21.71 118.654 18.3369 121.39 15.5952C124.163 12.8175 127.548 11.4286 131.544 11.4286C135.541 11.4286 138.926 12.8175 141.698 15.5952C144.471 18.3369 145.857 21.71 145.857 25.7143C145.857 29.7186 144.471 33.1097 141.698 35.8874ZM126.305 31.0714C127.71 32.4784 129.456 33.1818 131.544 33.1818C133.633 33.1818 135.379 32.4784 136.783 31.0714C138.188 29.6645 138.89 27.8788 138.89 25.7143C138.89 23.5498 138.188 21.7641 136.783 20.3571C135.379 18.9502 133.633 18.2468 131.544 18.2468C129.456 18.2468 127.71 18.9502 126.305 20.3571C124.937 21.7641 124.253 23.5498 124.253 25.7143C124.253 27.8788 124.937 29.6645 126.305 31.0714Z" fill="black"/>
<path id="Vector_4" d="M107.389 11.4286H115.857L104.526 40H95.7596L84.4286 11.4286H92.897L100.113 31.4286L107.389 11.4286Z" fill="black"/>
<path id="Vector_5" d="M72.5931 11.4286C75.6032 11.4286 78.0811 12.4477 80.0266 14.4858C82.0089 16.524 83 19.3404 83 22.935V40H75.8969V23.8243C75.8969 21.9715 75.4013 20.5633 74.4102 19.5998C73.4191 18.5992 72.0976 18.0989 70.4457 18.0989C68.6103 18.0989 67.1419 18.6733 66.0407 19.8221C64.9394 20.9709 64.3888 22.6941 64.3888 24.9917V40H57.2857V12.2068H64.3888V15.3196C66.1141 12.7256 68.8489 11.4286 72.5931 11.4286Z" fill="black"/>
<path id="Vector_6" d="M48.6874 8.84562C47.5373 8.84562 46.531 8.4191 45.6685 7.56607C44.8419 6.67594 44.4286 5.63746 44.4286 4.45063C44.4286 3.26379 44.8419 2.22531 45.6685 1.33519C46.531 0.445063 47.5373 0 48.6874 0C49.8733 0 50.8796 0.445063 51.7062 1.33519C52.5688 2.22531 53 3.26379 53 4.45063C53 5.63746 52.5688 6.67594 51.7062 7.56607C50.8796 8.4191 49.8733 8.84562 48.6874 8.84562ZM45.2372 40V12.1836H52.1914V40H45.2372Z" fill="black"/>
<path id="Vector_7" d="M154.402 8.84562C153.252 8.84562 152.245 8.4191 151.383 7.56607C150.556 6.67594 150.143 5.63746 150.143 4.45063C150.143 3.26379 150.556 2.22531 151.383 1.33519C152.245 0.445063 153.252 0 154.402 0C155.588 0 156.594 0.445063 157.42 1.33519C158.283 2.22531 158.714 3.26379 158.714 4.45063C158.714 5.63746 158.283 6.67594 157.42 7.56607C156.594 8.4191 155.588 8.84562 154.402 8.84562ZM150.951 40V12.1836H157.906V40H150.951Z" fill="black"/>
</g>
<g id="Subtract">
<path d="M18.3587 40C28.3384 40 36.4286 31.9411 36.4286 22C36.4286 12.0589 28.3384 4 18.3587 4C9.1439 4 1.54011 10.8708 0.428589 19.75H5.87944C6.28889 17.138 7.43932 14.897 9.33073 13.0273C11.7447 10.6091 14.8437 9.4 18.6278 9.4C22.2162 9.4 25.1684 10.6091 27.4845 13.0273C29.8333 15.4455 31.0076 18.4364 31.0076 22C31.0076 22.7955 30.9261 23.6386 30.763 24.5295H12.3156C13.1637 27.5205 15.4635 29.0159 19.215 29.0159C21.629 29.0159 23.4558 28.2205 24.6954 26.6295L29.7843 29.4932C27.3703 32.8977 23.8146 34.6 19.1171 34.6C15.0721 34.6 11.8263 33.4068 9.37966 31.0205C7.52406 29.2105 6.37214 27.0437 5.9239 24.52H0.464472C1.69478 33.2681 9.23752 40 18.3587 40Z" fill="#1E6091"/>
<path d="M12.2177 19.7568H24.6954C24.3366 18.1341 23.5863 16.925 22.4445 16.1295C21.3354 15.3341 20.0632 14.9364 18.6278 14.9364C16.9315 14.9364 15.5288 15.3659 14.4197 16.225C13.3105 17.0523 12.5766 18.2295 12.2177 19.7568Z" fill="#1E6091"/>
</g>
</g>
</svg>
