<svg width="210" height="40" viewBox="0 0 210 40" fill="none" xmlns="http://www.w3.org/2000/svg">
<g id="Frame 15">
<path id="Vector" d="M72.4016 30.0005L60.7313 16.9005V30.0005H57.5781V10.0703H59.3516L70.536 22.5608V10.0703H73.6891V30.0005H72.4016Z" fill="#ED1515"/>
<path id="Vector_2" d="M52.3406 10.0703H49.1875V30.0005H52.3406V10.0703Z" fill="#ED1515"/>
<path id="Vector_3" d="M78.5078 10.0703H84.0859C86.5469 10.0703 88.5813 10.5624 90.1906 11.5481C91.7985 12.5338 92.9703 13.8021 93.7078 15.3529C94.4438 16.9052 94.8125 18.556 94.8125 20.3084C94.8125 22.2433 94.3672 23.9449 93.4781 25.4148C92.5891 26.8846 91.3985 28.0164 89.9078 28.81C88.4172 29.6037 86.7906 30.0005 85.0297 30.0005H78.5078V10.0703ZM84.4641 26.9338C85.8656 26.9338 87.1 26.6703 88.1703 26.1402C89.2391 25.6116 90.075 24.8306 90.6766 23.8005C91.2781 22.7687 91.5797 21.5322 91.5797 20.091C91.5797 18.5211 91.2516 17.2116 90.5953 16.1624C89.9391 15.1132 89.1031 14.3417 88.0891 13.8497C87.0734 13.3576 86.0266 13.11 84.95 13.11H81.6625V26.9354H84.4656L84.4641 26.9338Z" fill="#ED1515"/>
<path id="Vector_4" d="M107.247 19.7079C106.538 19.2889 105.636 18.8746 104.567 18.4762C103.6 18.1016 102.802 17.754 102.192 17.4445C101.602 17.1445 101.109 16.7619 100.731 16.3095C100.363 15.8698 100.184 15.346 100.184 14.7079C100.184 13.7952 100.523 13.0683 101.222 12.4857C101.923 11.9 102.88 11.6032 104.064 11.6032C104.786 11.6032 105.538 11.7095 106.295 11.9206C107.059 12.1317 107.763 12.3921 108.389 12.6921L108.581 12.7841L109.278 11.3667L109.084 11.2683C108.364 10.9032 107.53 10.5968 106.606 10.3587C105.678 10.1206 104.77 10 103.902 10C102.883 10.019 101.944 10.2302 101.111 10.6302C100.27 11.0333 99.6063 11.6048 99.1328 12.3302C98.6594 13.0571 98.4172 13.9032 98.4172 14.8444C98.4172 15.7857 98.6703 16.6286 99.1672 17.2778C99.6547 17.9127 100.264 18.4286 100.981 18.8111C101.681 19.1841 102.577 19.5762 103.642 19.9714C104.586 20.327 105.378 20.6826 105.995 21.0254C106.594 21.3587 107.098 21.8064 107.495 22.354C107.883 22.8905 108.078 23.5651 108.078 24.3587C108.078 25.208 107.864 25.9429 107.441 26.5413C107.014 27.1461 106.453 27.6032 105.775 27.9C104.303 28.5461 102.616 28.4905 100.87 27.8016C99.9359 27.4334 99.1391 26.9968 98.5016 26.5064L98.3047 26.3556L97.4688 27.8333L97.6391 27.9476C99.6344 29.281 101.681 29.9572 103.719 29.9572C104.9 29.9572 105.967 29.7222 106.889 29.2588C107.819 28.7921 108.55 28.1222 109.067 27.2714C109.583 26.4191 109.845 25.4302 109.845 24.3302C109.845 23.173 109.591 22.208 109.089 21.4619C108.595 20.727 107.977 20.1365 107.25 19.7064" fill="#ED1515"/>
<path id="Vector_5" d="M152.255 10.0703H150.516V30.0005H152.255V10.0703Z" fill="#ED1515"/>
<path id="Vector_6" d="M192.495 10.0703H179.688V11.783H185.195L185.222 30.0005H186.961L186.934 11.783H192.495V10.0703Z" fill="#ED1515"/>
<path id="Vector_7" d="M126.072 11.4973C124.994 10.5497 123.527 10.0703 121.708 10.0703H114.609V30.0005H116.197V21.4957H121.575C122.942 21.4957 124.098 21.2211 125.013 20.6783C125.928 20.1354 126.614 19.41 127.05 18.5227C127.483 17.6417 127.703 16.6735 127.703 15.6465C127.703 13.8449 127.153 12.4481 126.07 11.4957M125.714 17.6021C125.433 18.2497 124.945 18.8052 124.263 19.256C123.58 19.7068 122.675 19.9354 121.572 19.9354L116.242 19.9306V19.9354H116.194V11.6275H116.242V11.6322L121.838 11.6275C123.194 11.6275 124.263 12.0005 125.013 12.7354C125.761 13.4687 126.141 14.4481 126.141 15.6465C126.141 16.2894 125.997 16.9481 125.714 17.6021Z" fill="#ED1515"/>
<path id="Vector_8" d="M38.9156 10.0703L31.5672 27.6068L27.6719 18.3116L25.8516 22.6544L28.9297 30.0005H34.2031L40.736 14.4132V30.0005H43.9625V10.0703H38.9156Z" fill="#ED1515"/>
<path id="Vector_9" d="M29.4922 10.0703H25.8516L17.5 30.0005H21.1406L27.6719 14.4132L31.5672 23.7084L33.3875 19.3656L29.4922 10.0703Z" fill="#ED1515"/>
<path id="Vector_10" d="M143.613 30.0021H145.319L145.305 29.9783L139.995 21.4005C140.805 21.2783 141.519 21.0386 142.123 20.6799C143.039 20.1354 143.725 19.4116 144.161 18.5243C144.595 17.6433 144.814 16.6751 144.814 15.6481C144.814 13.8465 144.264 12.4497 143.181 11.4973C142.103 10.5497 140.636 10.0703 138.817 10.0703H131.719V30.0005H133.306V21.4957H138.295L143.598 29.9767L143.613 30.0005V30.0021ZM133.355 19.9338V19.9386H133.306V11.6306H133.355V11.6354L138.95 11.6306C140.306 11.6306 141.375 12.0036 142.125 12.7386C142.873 13.4735 143.253 14.4513 143.253 15.6497C143.253 16.2925 143.109 16.9513 142.827 17.6052C142.545 18.2529 142.058 18.8084 141.375 19.2592C140.692 19.71 139.788 19.9386 138.684 19.9386L133.355 19.9338Z" fill="#ED1515"/>
<path id="Vector_11" d="M173.952 10.0547V26.8484L169.644 21.5849L166.886 18.2134L160.487 10.3531V10.3515L160.309 10.1341L160.256 10.0706H158.762L158.734 30.0007H160.487V13.2087L166.169 20.1468L174.319 29.9865H175.677L175.705 10.0547H173.952Z" fill="#ED1515"/>
</g>
</svg>
