<svg width="20" height="20" viewBox="0 0 20 20" fill="none" xmlns="http://www.w3.org/2000/svg">
<g id="motion-play-outline">
<path id="Vector" d="M8.33341 13.75L13.3334 9.99996L8.33341 6.24996M18.3334 9.99996C18.3334 5.38329 14.6167 1.66663 10.0001 1.66663C9.02508 1.66663 8.08341 1.82496 7.18341 2.13329L7.76675 3.74996C8.47508 3.46663 9.21675 3.30829 10.0001 3.30829C13.6751 3.30829 16.6917 6.32496 16.6917 9.99996C16.6917 13.675 13.6751 16.6916 10.0001 16.6916C6.32508 16.6916 3.30841 13.675 3.30841 9.99996C3.30841 9.21663 3.46675 8.43329 3.75008 7.73329L2.13341 7.18329C1.82508 8.08329 1.66675 9.02496 1.66675 9.99996C1.66675 14.6166 5.38341 18.3333 10.0001 18.3333C14.6167 18.3333 18.3334 14.6166 18.3334 9.99996ZM4.55841 3.30829C5.26675 3.30829 5.83341 3.89996 5.83341 4.55829C5.83341 5.26663 5.26675 5.83329 4.55841 5.83329C3.90008 5.83329 3.30841 5.26663 3.30841 4.55829C3.30841 3.89996 3.90008 3.30829 4.55841 3.30829Z" fill="#555555"/>
</g>
</svg>
