<svg width="120" height="120" viewBox="0 0 120 120" fill="none" xmlns="http://www.w3.org/2000/svg">
<g clip-path="url(#clip0_247_1580)">
<path d="M11.9157 110.663C8.20954 110.597 8.77462 104.896 12.4199 105.558C15.4037 106.079 14.9443 110.735 11.9157 110.663Z" fill="#52B69A"/>
<path d="M21.2507 110.662C17.5471 110.595 18.1108 104.897 21.7548 105.558C24.742 106.076 24.2812 110.738 21.2507 110.662Z" fill="#52B69A"/>
<path d="M44.5942 110.663H30.5889C29.165 110.663 28.0107 109.509 28.0107 108.085C28.0107 106.661 29.165 105.507 30.5889 105.507H44.5942C46.018 105.507 47.1723 106.661 47.1723 108.085C47.1723 109.509 46.018 110.663 44.5942 110.663Z" fill="#184E77"/>
<path d="M75.4057 110.663C71.7009 110.596 72.2651 104.897 75.9099 105.558C78.8958 106.076 78.4352 110.738 75.4057 110.663Z" fill="#52B69A"/>
<path d="M84.7428 110.663C81.0376 110.597 81.6022 104.896 85.247 105.558C88.231 106.077 87.7719 110.737 84.7428 110.663Z" fill="#52B69A"/>
<path d="M108.085 110.663H94.0796C92.6558 110.663 91.5015 109.509 91.5015 108.085C91.5015 106.661 92.6558 105.507 94.0796 105.507H108.085C109.509 105.507 110.663 106.661 110.663 108.085C110.663 109.509 109.509 110.663 108.085 110.663Z" fill="#184E77"/>
<path d="M56.509 80.0742C56.509 78.6504 55.3547 77.4961 53.9309 77.4961H2.57812C1.1543 77.4961 0 78.6504 0 80.0742V117.422C0 118.846 1.1543 120 2.57812 120H53.9309C55.3547 120 56.509 118.846 56.509 117.422V80.0742ZM5.15625 82.6523H51.3527V96.1699H5.15625V82.6523ZM51.3527 114.844H5.15625V101.326H51.3527V114.844Z" fill="#184E77"/>
<path d="M11.9156 91.9899C8.21012 91.92 8.77262 86.2259 12.4197 86.8828C15.404 87.4074 14.944 92.0588 11.9156 91.9899Z" fill="#52B69A"/>
<path d="M21.2509 91.9898C17.5478 91.9164 18.1098 86.2282 21.7551 86.8828C24.7422 87.4057 24.2814 92.0594 21.2509 91.9898Z" fill="#52B69A"/>
<path d="M44.5942 91.9894H30.5889C29.165 91.9894 28.0107 90.8351 28.0107 89.4113C28.0107 87.9874 29.165 86.8331 30.5889 86.8331H44.5942C46.018 86.8331 47.1723 87.9874 47.1723 89.4113C47.1723 90.8351 46.018 91.9894 44.5942 91.9894Z" fill="#184E77"/>
<path d="M120 80.0742C120 78.6504 118.846 77.4961 117.422 77.4961H66.0693C64.6455 77.4961 63.4912 78.6504 63.4912 80.0742V117.422C63.4912 118.846 64.6455 120 66.0693 120H117.422C118.846 120 120 118.846 120 117.422V80.0742ZM114.844 114.844H68.6475V101.326H114.844V114.844ZM114.844 96.1699H68.6475V82.6523H114.844V96.1699Z" fill="#184E77"/>
<path d="M75.4053 91.9899C71.7026 91.9186 72.2607 86.2318 75.9094 86.8828C78.8956 87.4057 78.4348 92.06 75.4053 91.9899Z" fill="#52B69A"/>
<path d="M84.7431 91.9898C81.714 92.061 81.2535 87.4045 84.2394 86.8828C87.8856 86.2263 88.4462 91.9206 84.7431 91.9898Z" fill="#52B69A"/>
<path d="M108.085 91.9894H94.0796C92.6558 91.9894 91.5015 90.8351 91.5015 89.4113C91.5015 87.9874 92.6558 86.8331 94.0796 86.8331H108.085C109.509 86.8331 110.663 87.9874 110.663 89.4113C110.663 90.8351 109.509 91.9894 108.085 91.9894Z" fill="#184E77"/>
<path d="M82.175 61.1775H37.8247C36.4009 61.1775 35.2466 60.0232 35.2466 58.5994V2.57812C35.2466 1.1543 36.4009 0 37.8247 0H72.838C73.5217 0 74.1774 0.271641 74.661 0.755156L83.9978 10.092C84.481 10.5755 84.7529 11.2313 84.7529 11.9149V58.5994C84.7531 60.0234 83.5989 61.1775 82.175 61.1775ZM40.4028 56.0213H79.5969V12.983L71.7702 5.15625H40.4028V56.0213Z" fill="#184E77"/>
<path d="M56.4984 14.493H47.1616C45.7378 14.493 44.5835 13.3387 44.5835 11.9149C44.5835 10.4911 45.7378 9.33679 47.1616 9.33679H56.4984C57.9222 9.33679 59.0765 10.4911 59.0765 11.9149C59.0765 13.3387 57.9222 14.493 56.4984 14.493Z" fill="#52B69A"/>
<path d="M72.8379 23.8301H47.1616C45.7378 23.8301 44.5835 22.6758 44.5835 21.252C44.5835 19.8281 45.7378 18.6738 47.1616 18.6738H72.8381C74.2619 18.6738 75.4162 19.8281 75.4162 21.252C75.416 22.6758 74.2619 23.8301 72.8379 23.8301Z" fill="#184E77"/>
<path d="M72.8379 33.1669H47.1616C45.7378 33.1669 44.5835 32.0126 44.5835 30.5887C44.5835 29.1649 45.7378 28.0106 47.1616 28.0106H72.8381C74.2619 28.0106 75.4162 29.1649 75.4162 30.5887C75.416 32.0126 74.2619 33.1669 72.8379 33.1669Z" fill="#52B69A"/>
<path d="M72.8379 42.5039H47.1616C45.7378 42.5039 44.5835 41.3496 44.5835 39.9258C44.5835 38.502 45.7378 37.3477 47.1616 37.3477H72.8381C74.2619 37.3477 75.4162 38.502 75.4162 39.9258C75.416 41.3496 74.2619 42.5039 72.8379 42.5039Z" fill="#184E77"/>
<path d="M72.8378 51.8407H63.501C62.0771 51.8407 60.9229 50.6864 60.9229 49.2626C60.9229 47.8387 62.0771 46.6844 63.501 46.6844H72.8378C74.2616 46.6844 75.4159 47.8387 75.4159 49.2626C75.4159 50.6864 74.2618 51.8407 72.8378 51.8407Z" fill="#52B69A"/>
<path d="M21.0628 22.6819C21.6394 21.8325 21.6352 20.6512 21.0523 19.8061L16.3945 12.8191C15.6047 11.6344 14.0041 11.3142 12.8194 12.1041C11.6346 12.8939 11.3145 14.4944 12.1043 15.6792L14.1005 18.6736H2.57812C1.1543 18.6736 0 19.8279 0 21.2517V65.602C0 67.0259 1.1543 68.1802 2.57812 68.1802C4.00195 68.1802 5.15625 67.0259 5.15625 65.602V23.8301H14.1005L12.1043 26.8244C11.3145 28.0092 11.6346 29.6098 12.8194 30.3996C13.2588 30.6928 13.7557 30.833 14.247 30.833C15.0802 30.833 15.8979 30.4298 16.3945 29.6848L21.0523 22.6978C21.0558 22.6924 21.0593 22.687 21.0628 22.6819Z" fill="#52B69A"/>
<path d="M30.4 64.6978C30.9765 63.8485 30.9721 62.6672 30.3894 61.8221L25.7314 54.8351C24.9416 53.6506 23.3411 53.3302 22.1563 54.12C20.9715 54.9099 20.6514 56.5104 21.4412 57.6952L23.4374 60.6896H14.4932V37.5914C14.4932 36.1676 13.3389 35.0133 11.915 35.0133C10.4912 35.0133 9.33691 36.1676 9.33691 37.5914V63.2679C9.33691 64.6917 10.4912 65.846 11.915 65.846H23.4374L21.441 68.8407C20.6511 70.0254 20.9715 71.626 22.1561 72.4158C22.5957 72.7088 23.0924 72.8489 23.5836 72.8489C24.4168 72.8489 25.2346 72.4458 25.7312 71.7007L30.3901 64.7124C30.3934 64.7079 30.3969 64.7023 30.4 64.6978Z" fill="#184E77"/>
<path d="M117.422 18.6739H105.9L107.896 15.6795C108.686 14.4947 108.365 12.8942 107.181 12.1043C105.996 11.3143 104.395 11.6349 103.606 12.8194L98.9478 19.8064C98.3612 20.6569 98.3612 21.8473 98.9478 22.6979L103.606 29.6848C104.102 30.4301 104.92 30.8333 105.753 30.833C106.244 30.833 106.741 30.6929 107.181 30.3997C108.365 29.6098 108.686 28.0093 107.896 26.8245L105.9 23.8301H114.844V65.6023C114.844 67.0261 115.998 68.1804 117.422 68.1804C118.846 68.1804 120 67.0261 120 65.6023V21.252C120 19.8282 118.846 18.6739 117.422 18.6739Z" fill="#184E77"/>
<path d="M108.085 35.0133C106.661 35.0133 105.507 36.1676 105.507 37.5914V60.6898H96.5629L98.5591 57.6954C99.3489 56.5107 99.0287 54.9101 97.844 54.1203C96.6592 53.3304 95.0587 53.6508 94.2688 54.8353L89.6108 61.8223C89.0247 62.6724 89.0242 63.8618 89.6097 64.7124L94.2686 71.7007C94.7655 72.446 95.583 72.8489 96.4162 72.8489C96.9074 72.8489 97.4043 72.7088 97.8437 72.4158C99.0285 71.626 99.3487 70.0252 98.5588 68.8407L96.5624 65.846H108.085C109.509 65.846 110.663 64.6917 110.663 63.2679V37.5914C110.663 36.1676 109.509 35.0133 108.085 35.0133Z" fill="#52B69A"/>
</g>
<defs>
<clipPath id="clip0_247_1580">
<rect width="120" height="120" fill="white"/>
</clipPath>
</defs>
</svg>
