<svg width="187" height="163" viewBox="0 0 187 163" fill="none" xmlns="http://www.w3.org/2000/svg">
<g id="search">
<g id="documents">
<path id="Fill 1" fill-rule="evenodd" clip-rule="evenodd" d="M107.345 138H25.3402C19.5683 138 14.8438 133.261 14.8438 127.47V10.5275C14.8438 4.73619 19.5683 0 25.3402 0H107.345C113.119 0 117.844 4.73619 117.844 10.5275V127.47C117.844 133.261 113.119 138 107.345 138Z" fill="#E0E2EE"/>
<path id="Fill 3" fill-rule="evenodd" clip-rule="evenodd" d="M100.345 143H18.3402C12.5683 143 7.84375 138.261 7.84375 132.47V15.5275C7.84375 9.73619 12.5683 5 18.3402 5H100.345C106.119 5 110.844 9.73619 110.844 15.5275V132.47C110.844 138.261 106.119 143 100.345 143Z" fill="#E8EBF2"/>
<path id="Fill 5" fill-rule="evenodd" clip-rule="evenodd" d="M93.5361 146.947H11.3619C5.57811 146.947 0.84375 142.228 0.84375 136.461V20.0025C0.84375 14.2351 5.57811 9.51855 11.3619 9.51855H93.5361C99.3223 9.51855 104.057 14.2351 104.057 20.0025V136.461C104.057 142.228 99.3223 146.947 93.5361 146.947Z" fill="#D8DBEA"/>
<path id="Fill 8" fill-rule="evenodd" clip-rule="evenodd" d="M93.5361 146.947H11.3619C5.57811 146.947 0.84375 142.228 0.84375 136.461V20.0025C0.84375 14.2351 5.57811 9.51855 11.3619 9.51855H93.5361C99.3223 9.51855 104.057 14.2351 104.057 20.0025V136.461C104.057 142.228 99.3223 146.947 93.5361 146.947Z" fill="#F1F2F7"/>
<path id="Fill 11" fill-rule="evenodd" clip-rule="evenodd" d="M81.6916 45H20.9959C19.2626 45 17.8438 43.6502 17.8438 42.0011C17.8438 40.3498 19.2626 39 20.9959 39H81.6916C83.4249 39 84.8438 40.3498 84.8438 42.0011C84.8438 43.6502 83.4249 45 81.6916 45Z" fill="#E0E2EE"/>
<path id="Fill 13" fill-rule="evenodd" clip-rule="evenodd" d="M81.6916 63H20.9959C19.2626 63 17.8438 61.6502 17.8438 60.0011C17.8438 58.3498 19.2626 57 20.9959 57H81.6916C83.4249 57 84.8438 58.3498 84.8438 60.0011C84.8438 61.6502 83.4249 63 81.6916 63Z" fill="#E0E2EE"/>
<path id="Fill 15" fill-rule="evenodd" clip-rule="evenodd" d="M81.6916 81H20.9959C19.2626 81 17.8438 79.6502 17.8438 78.0011C17.8438 76.3521 19.2626 75 20.9959 75H81.6916C83.4249 75 84.8438 76.3521 84.8438 78.0011C84.8438 79.6502 83.4249 81 81.6916 81Z" fill="#E0E2EE"/>
<path id="Fill 17" fill-rule="evenodd" clip-rule="evenodd" d="M81.6916 99H20.9959C19.2626 99 17.8438 97.6502 17.8438 96.0011C17.8438 94.3498 19.2626 93 20.9959 93H81.6916C83.4249 93 84.8438 94.3498 84.8438 96.0011C84.8438 97.6502 83.4249 99 81.6916 99Z" fill="#E0E2EE"/>
<path id="Fill 19" fill-rule="evenodd" clip-rule="evenodd" d="M52.6781 117H21.0094C19.2687 117 17.8438 115.65 17.8438 114.001C17.8438 112.35 19.2687 111 21.0094 111H52.6781C54.4188 111 55.8438 112.35 55.8438 114.001C55.8438 115.65 54.4188 117 52.6781 117Z" fill="#E0E2EE"/>
</g>
<g id="search_2">
<path id="Fill 21" fill-rule="evenodd" clip-rule="evenodd" d="M116.599 93.7368C104.462 105.871 85.6729 107.24 72.0322 97.8715C70.2889 96.6527 68.6296 95.2838 67.0823 93.7368C66.2857 92.9429 65.535 92.1236 64.8275 91.261C63.4125 89.5384 62.1732 87.7013 61.1577 85.8031C59.3687 82.597 58.1522 79.1951 57.488 75.6786C55.3451 64.6508 58.5492 52.7808 67.0823 44.2517C75.6358 35.6971 87.5078 32.514 98.5374 34.6361C102.052 35.3206 105.457 36.5368 108.664 38.3052C110.565 39.3434 112.377 40.5826 114.102 41.9973C114.962 42.7021 115.782 43.4553 116.576 44.2517C118.126 45.7987 119.515 47.4552 120.711 49.2007C130.084 62.8366 128.713 81.625 116.599 93.7368Z" fill="white" fill-opacity="0.1"/>
<path id="Fill 23" fill-rule="evenodd" clip-rule="evenodd" d="M113.203 91.3468C100.576 103.976 80.1136 103.973 67.4847 91.3468C54.8722 78.7343 54.8722 58.2696 67.5011 45.643C80.1136 33.0305 100.576 33.0305 113.188 45.643C125.815 58.2696 125.815 78.7343 113.203 91.3468ZM119.683 39.1555C103.475 22.9482 77.2119 22.9482 61.0045 39.1555C44.7996 55.3605 44.7855 81.6405 60.9904 97.8478C75.741 112.594 98.8608 113.924 115.122 101.816C116.71 100.632 118.24 99.3046 119.699 97.8478C121.156 96.3887 122.483 94.8592 123.665 93.2709C135.773 77.0071 134.431 53.9038 119.683 39.1555Z" fill="#E0E2EE"/>
<path id="Fill 25" fill-rule="evenodd" clip-rule="evenodd" d="M183.466 158.942L182.785 159.622C178.284 164.126 170.912 164.126 166.409 159.622L124.844 118.057L141.901 101L183.466 142.565C187.97 147.069 187.97 154.438 183.466 158.942Z" fill="url(#paint0_linear_27_4645)"/>
<path id="Fill 27" fill-rule="evenodd" clip-rule="evenodd" d="M124.561 92L136.844 104.283L128.124 113L115.844 100.717C117.464 99.5091 119.023 98.1545 120.514 96.668C122.001 95.1815 123.355 93.6207 124.561 92Z" fill="#E0E2EE"/>
<path id="Fill 29" fill-rule="evenodd" clip-rule="evenodd" d="M182.844 142.054L165.895 159L162.844 155.946L179.79 139L182.844 142.054Z" fill="#1E6091"/>
<path id="Fill 31" fill-rule="evenodd" clip-rule="evenodd" d="M142.844 101.587L125.431 119L122.844 116.413L140.257 99L142.844 101.587Z" fill="url(#paint1_linear_27_4645)"/>
<path id="Fill 33" fill-rule="evenodd" clip-rule="evenodd" d="M104.844 41.2986L62.1402 84C60.532 81.1177 59.4385 78.0593 58.8438 74.8979L95.7412 38C98.9004 38.6176 101.961 39.7088 104.844 41.2986Z" fill="white" fill-opacity="0.5"/>
<path id="Fill 35" fill-rule="evenodd" clip-rule="evenodd" d="M118.844 51.4484L72.6766 95C71.0233 93.9116 69.4497 92.6866 67.9822 91.3022C67.2267 90.5895 66.5123 89.8586 65.8438 89.0867L112.573 45C113.391 45.633 114.169 46.307 114.922 47.0197C116.389 48.4041 117.709 49.8864 118.844 51.4484Z" fill="white" fill-opacity="0.5"/>
</g>
</g>
<defs>
<linearGradient id="paint0_linear_27_4645" x1="155.844" y1="70" x2="93.8438" y2="132" gradientUnits="userSpaceOnUse">
<stop stop-color="#168AAD"/>
<stop offset="1" stop-color="#76C893"/>
</linearGradient>
<linearGradient id="paint1_linear_27_4645" x1="132.844" y1="89" x2="112.844" y2="109" gradientUnits="userSpaceOnUse">
<stop stop-color="#1A759F"/>
<stop offset="1" stop-color="#34A0A4"/>
</linearGradient>
</defs>
</svg>
